# xmcd
#
# Track frame offsets:
#	150
#	11619
#	22769
#	28717
#	39120
#	48608
#	62360
#	77306
#	89950
#	102276
#	114534
#	125786
#	137885
#	151287
#	164931
#	173045
#	184719
#	196026
#	208234
#	220568
#
# Disc length: 3095 seconds
#
# Revision: 2
# Processed by: cddbd v1.5.2PL0 Copyright (c) Steve Scherf et al.
# Submitted via: audiograbber 1.83.01
#
DISCID=0d0c1514
DTITLE=Various Artist - 200 Country Classics Vol.2  -  CD 5
DYEAR=2008
DGENRE=Country
TTITLE0=Tammy Wynette - D.I.V.O.R.C.E.
TTITLE1=Don Gibson - Oh, Lonesome Me
TTITLE2=Jim Reeves - Have I Told You  Lately That I Love You
TTITLE3=Slim Whitman - Rose Marie
TTITLE4=Dave Duddley - Six Days On The Road
TTITLE5=Barbara Fairchild - Teddy Bear Song
TTITLE6=John Anderson - Country Comfort
TTITLE7=Bobby Helms - Fraulein
TTITLE8=Bobby Bare - When Love Is Gone
TTITLE9=Buck Owens - The House Down The Block
TTITLE10=Jim Reeves - Just Call Me Lonesome
TTITLE11=Dolly Parton - Two Little Orphans
TTITLE12=Johnny Paycheck - Someone To Give My Love To
TTITLE13=Billy Walker - Cross The Brazos At Waco
TTITLE14=Don Gibson - Blue Blue Day
TTITLE15=Bob Wills - New San Antonio Rose
TTITLE16=Kitty Wells - Heartbreak U.S.A.
TTITLE17=Hank Williams - ( Last Night ) I Hreard you Crying in Your Sleep
TTITLE18=Jim Reeves - Your Old Love Letters
TTITLE19=Billie Jo Spears - Ease The Want In Me
EXTD=
EXTT0=
EXTT1=
EXTT2=
EXTT3=
EXTT4=
EXTT5=
EXTT6=
EXTT7=
EXTT8=
EXTT9=
EXTT10=
EXTT11=
EXTT12=
EXTT13=
EXTT14=
EXTT15=
EXTT16=
EXTT17=
EXTT18=
EXTT19=
PLAYORDER=
